<?xml version="1.0" encoding="UTF-8"?>
<svg xmlns="http://www.w3.org/2000/svg" viewBox="0 0 512 512" width="100%" height="100%">
  <path d="M0 0 C0.65084285 -0.00367669 1.3016857 -0.00735338 1.97225106 -0.01114148 C4.15754424 -0.0221718 6.34278985 -0.02602115 8.52810669 -0.02983093 C10.09364472 -0.03609645 11.65918127 -0.04274333 13.22471619 -0.04974365 C18.37287358 -0.07078902 23.52103126 -0.08115156 28.66921997 -0.09111023 C30.44423564 -0.09515865 32.21925116 -0.09927559 33.99426651 -0.10346031 C42.34023339 -0.12251887 50.68619143 -0.13674433 59.0321759 -0.14507228 C68.64652625 -0.15482521 78.26064517 -0.1810909 87.87491405 -0.22157317 C95.31630702 -0.25182315 102.75763404 -0.26654984 110.19908726 -0.26985329 C114.63789393 -0.27219513 119.07645359 -0.2810408 123.51519394 -0.30631447 C127.69970872 -0.32975385 131.88381671 -0.3337654 136.06838036 -0.32355309 C137.59486565 -0.32306132 139.12137204 -0.32974332 140.64779472 -0.34310913 C154.68096217 -0.46306246 166.68848616 1.62193694 177.23953247 11.39717102 C185.73912574 20.21573357 186.92808338 30.80705767 186.84890747 42.59931946 C186.32569521 69.64285302 181.46732046 96.04759956 174.61453247 122.14717102 C174.39071899 123.00729797 174.16690552 123.86742493 173.93630981 124.75361633 C168.37661178 145.70524912 159.89045151 166.07650275 149.61453247 185.14717102 C149.24005981 185.85599426 148.86558716 186.5648175 148.47976685 187.29512024 C136.98204578 209.01565141 122.66950419 228.47351835 105.61453247 246.14717102 C105.0479895 246.73562805 104.48144653 247.32408508 103.8977356 247.93037415 C96.53579692 255.53635499 89.06166488 262.73640089 80.61453247 269.14717102 C79.69607544 269.85559143 79.69607544 269.85559143 78.75906372 270.57832336 C58.15793372 286.38281696 23.00812095 311.93509754 -4.38546753 310.14717102 C-8.94816491 308.82577655 -11.8681207 306.79717088 -14.82296753 303.08467102 C-17.24391399 298.53329168 -17.80670275 295.28624072 -17.38546753 290.14717102 C-15.53216533 284.74842115 -13.16700604 281.36868503 -8.38546753 278.14717102 C-5.29901259 276.78898147 -2.12954925 275.69775571 1.05203247 274.58467102 C24.96722972 265.7815053 47.53937091 253.1764162 66.61453247 236.14717102 C67.10212036 235.71307922 67.58970825 235.27898743 68.09207153 234.83174133 C71.64811161 231.65376681 75.14378909 228.41805417 78.61453247 225.14717102 C79.34671997 224.45752258 80.07890747 223.76787415 80.83328247 223.05732727 C86.24398753 217.8076551 90.98224928 212.08792382 95.61453247 206.14717102 C96.03605591 205.6073761 96.45757935 205.06758118 96.89187622 204.51142883 C125.51952044 167.53759457 142.32340356 123.22621352 149.48953247 77.27217102 C149.64512634 76.27575089 149.64512634 76.27575089 149.80386353 75.25920105 C151.53498283 63.99765045 152.79223151 52.7393755 152.67703247 41.33467102 C152.66800903 40.15260071 152.6589856 38.9705304 152.64968872 37.75263977 C152.63808716 36.89283508 152.6264856 36.0330304 152.61453247 35.14717102 C149.67821934 33.67901446 146.6334472 33.77456141 143.40606689 33.59353638 C142.68866243 33.55141897 141.97125796 33.50930156 141.23211396 33.46590787 C134.13816655 33.07622996 127.05397465 33.00232413 119.94998169 33.00532532 C118.56821077 33.00228117 117.18644084 32.99875635 115.80467224 32.99479675 C112.86765311 32.98701145 109.93064553 32.98180324 106.99361801 32.97850609 C102.34476893 32.97251714 97.6959932 32.95591115 93.04718018 32.93716431 C91.44669154 32.93083052 89.84620288 32.92450485 88.24571419 32.91818714 C87.44536696 32.91502133 86.64501973 32.91185552 85.82041955 32.90859377 C75.02361225 32.86669592 64.22684569 32.83347492 53.42996216 32.82124329 C46.10720848 32.8128632 38.78464383 32.79039515 31.46198475 32.75188762 C27.59874486 32.73216519 23.73578721 32.71971063 19.87249374 32.72472191 C16.24914278 32.72936742 12.62633037 32.7155694 9.003088 32.68770981 C7.04587029 32.67751661 5.0885808 32.68704501 3.13136292 32.69720459 C-7.5700771 32.58331691 -7.5700771 32.58331691 -12.38546753 28.14717102 C-16.46901569 23.62215819 -17.70176171 20.35651812 -17.60031128 14.20185852 C-17.00512749 8.5097372 -13.53514849 4.77814186 -9.38546753 1.14717102 C-6.04118655 0.03241069 -3.52494918 0.0129013 0 0 Z" fill="currentColor" transform="translate(107.38546752929688,111.85282897949219)"/>
  <path d="M0 0 C1.010625 -0.00773437 2.02125 -0.01546875 3.0625 -0.0234375 C7.70496206 0.60625815 10.84970467 2.75904738 13.75 6.375 C17.070499 10.802332 17.14263831 14.25439801 17.12025452 19.56925964 C17.12110894 20.30686234 17.12196337 21.04446504 17.12284368 21.80441934 C17.12449433 24.28264195 17.11898388 26.76079727 17.11352539 29.23901367 C17.1132434 31.01283263 17.11340148 32.7866517 17.1139679 34.56047058 C17.11425542 39.38246338 17.10836592 44.20443142 17.10139394 49.02641845 C17.09515295 54.06329076 17.09455601 59.1001636 17.09336853 64.13703918 C17.09025742 73.67800635 17.08204698 83.2189621 17.07201904 92.75992423 C17.06085108 103.62072878 17.05534573 114.48153387 17.05032361 125.34234273 C17.0398642 147.68656816 17.022269 170.03078344 17 192.375 C17.97932747 192.36500725 17.97932747 192.36500725 18.97843933 192.35481262 C25.77537104 192.28842775 32.57221059 192.24318613 39.36938477 192.21020508 C41.90588115 192.19512137 44.44235148 192.17465169 46.97875977 192.14868164 C50.62522822 192.11228119 54.27135173 192.09526918 57.91796875 192.08203125 C59.05147263 192.06654739 60.1849765 192.05106354 61.35282898 192.03511047 C62.41355118 192.03488388 63.47427338 192.03465729 64.56713867 192.03442383 C65.96279305 192.02443108 65.96279305 192.02443108 67.38664246 192.01423645 C71.81599916 192.62569142 74.99246206 194.93703062 77.75 198.375 C81.12799428 202.87899237 81.56481308 206.87330221 81 212.375 C78.99703332 218.05007225 75.38649821 221.68175089 70 224.375 C68.30456409 224.46551069 66.60556022 224.49254872 64.90771484 224.48852539 C63.31629166 224.48841209 63.31629166 224.48841209 61.69271851 224.48829651 C60.54373077 224.48313522 59.39474304 224.47797394 58.2109375 224.47265625 C57.03737701 224.4712413 55.86381653 224.46982635 54.6546936 224.46836853 C50.89477015 224.46275689 47.13490555 224.45020238 43.375 224.4375 C40.83073002 224.4324865 38.28645912 224.42792333 35.7421875 224.42382812 C29.49477147 224.41278368 23.24738994 224.39603418 17 224.375 C17.00276538 225.29714106 17.00553076 226.21928211 17.00837994 227.16936684 C17.07462256 249.60335246 17.12427222 272.03732123 17.15543652 294.47138405 C17.17090777 305.32031389 17.19200227 316.16917846 17.22631836 327.01806641 C17.25621275 336.47355708 17.27557312 345.92900048 17.28226548 355.3845371 C17.28617766 360.39153543 17.29537729 365.39839854 17.31719017 370.40535355 C17.33755588 375.11831742 17.3438336 379.83109038 17.33932304 384.54409409 C17.3401482 386.27347094 17.34611335 388.0028542 17.35761642 389.73219299 C17.37256204 392.09502162 17.36894634 394.45713123 17.36076355 396.81997681 C17.37387134 397.84431727 17.37387134 397.84431727 17.38724393 398.88935149 C17.33857817 404.09520958 16.05372845 408.17494993 12.46484375 412.01953125 C6.26628674 416.75960426 1.77296665 417.24970724 -6 416.375 C-11.46948828 414.16433575 -13.69619372 410.7072111 -16 405.375 C-16.37834883 402.11267483 -16.37834883 402.11267483 -16.38311005 398.50581551 C-16.39054932 397.50119722 -16.39054932 397.50119722 -16.39813888 396.47628361 C-16.41108412 394.23384249 -16.40271409 391.99199788 -16.39440918 389.74954224 C-16.3992986 388.12488981 -16.40548865 386.50024086 -16.41286707 384.87559783 C-16.4292832 380.41232652 -16.42694526 375.94923166 -16.4214921 371.48594069 C-16.41882397 366.67192013 -16.43334961 361.85794682 -16.44558716 357.04394531 C-16.46665242 347.61320073 -16.47118139 338.1825176 -16.46939927 328.75175227 C-16.46809222 321.08700526 -16.47189291 313.42227743 -16.47932434 305.75753403 C-16.48142351 303.55063848 -16.48352111 301.34374293 -16.48561716 299.13684738 C-16.48666069 298.03845145 -16.48770422 296.94005552 -16.48877937 295.80837487 C-16.50768611 275.02986768 -16.50663018 254.25139579 -16.49981004 233.47288357 C-16.49423406 214.46055983 -16.51506161 195.44837082 -16.54817051 176.43607856 C-16.58189618 156.91826418 -16.59707725 137.40051436 -16.59245348 117.88267028 C-16.59020768 106.92327788 -16.59546816 95.96401002 -16.62034607 85.00464249 C-16.64134463 75.67471137 -16.64496548 66.34497308 -16.62604648 57.01503409 C-16.61687982 52.25449575 -16.61577409 47.49431707 -16.63640213 42.73380661 C-16.65508054 38.37503791 -16.65064407 34.01692422 -16.62785631 29.6581807 C-16.62366261 28.08218413 -16.62789649 26.50613765 -16.64145225 24.9301938 C-16.7653719 9.46969006 -16.7653719 9.46969006 -11 3.375 C-7.37886192 0.43862842 -4.61167367 -0.03529342 0 0 Z" fill="currentColor" transform="translate(341,47.625)"/>
</svg>
