<?xml version="1.0" encoding="UTF-8"?>
<svg version="1.1" xmlns="http://www.w3.org/2000/svg" viewBox="0 0 512 512" width="100%" height="100%">
<path d="M0 0 C1.13903778 -0.00960754 2.27807556 -0.01921509 3.45162964 -0.02911377 C4.68591705 -0.03336365 5.92020447 -0.03761353 7.19189453 -0.04199219 C9.10362961 -0.0505423 9.10362961 -0.0505423 11.0539856 -0.05926514 C13.75917118 -0.06872419 16.46424566 -0.07561511 19.16943359 -0.07910156 C22.59963359 -0.08454041 26.02942734 -0.10846809 29.45950127 -0.13707352 C32.76612245 -0.16045456 36.07269519 -0.16216841 39.37939453 -0.16699219 C41.20046219 -0.18551239 41.20046219 -0.18551239 43.05831909 -0.20440674 C62.73082243 -0.15397006 78.28436051 6.73922413 92.55908203 20.14160156 C106.17718058 34.20835839 110.80158415 52.47612139 110.59814453 71.57910156 C110.02147451 85.49505982 105.75278579 97.49743328 97.80517578 108.91894531 C96.19103545 111.15234561 96.19103545 111.15234561 96.44970703 114.16113281 C98.17566746 115.80237677 98.17566746 115.80237677 100.44970703 117.34863281 C113.84882161 127.43984098 122.40442495 140.19505028 127.44970703 156.16113281 C127.68302734 156.88042969 127.91634766 157.59972656 128.15673828 158.34082031 C133.71429397 178.89178163 130.36537362 202.80831321 120.32470703 221.34863281 C109.67635873 238.51072129 93.29600434 251.15090925 73.82861328 256.65332031 C68.32230489 257.82872276 62.94787713 258.29053023 57.32446289 258.32226562 C56.65032852 258.32723053 55.97619415 258.33219543 55.28163147 258.33731079 C53.07592716 258.35178627 50.87029456 258.35870708 48.66455078 258.36425781 C47.90617983 258.36708519 47.14780888 258.36991257 46.36645699 258.37282562 C42.35896589 258.38775306 38.35151025 258.39702519 34.34399414 258.40136719 C30.21598929 258.40686536 26.088312 258.43093982 21.96041012 258.45933914 C18.77331088 258.47799145 15.58629052 258.48317233 12.39914131 258.48470306 C10.87735756 258.48772051 9.35557489 258.49571827 7.83384514 258.50888824 C5.70416248 258.52601595 3.57528094 258.52405354 1.44555664 258.51757812 C0.23645126 258.52122375 -0.97265411 258.52486938 -2.21839905 258.52862549 C-6.58366197 258.04715693 -9.96797375 256.63821465 -13.19482422 253.62597656 C-17.41165071 248.111665 -17.69884959 244.82829636 -17.69746399 238.00152588 C-17.70114068 237.04033207 -17.70481737 236.07913826 -17.70860547 235.08881736 C-17.7196742 231.84761772 -17.72349154 228.60645011 -17.72729492 225.36523438 C-17.73355714 223.04957985 -17.74020372 220.73392633 -17.74720764 218.41827393 C-17.76463936 212.11240897 -17.77517522 205.80655162 -17.78341317 199.50066853 C-17.78855849 195.56379628 -17.79463441 191.62692642 -17.8009243 187.69005585 C-17.81779692 176.79204191 -17.83243197 165.89403089 -17.83967304 154.99600601 C-17.84158297 152.1672592 -17.8435033 149.3385124 -17.84545898 146.50976562 C-17.84594272 145.8066854 -17.84642646 145.10360518 -17.84692486 144.3792195 C-17.85522547 132.98933014 -17.88056233 121.59954579 -17.91303966 110.20970228 C-17.94610475 98.51849767 -17.96378849 86.82735186 -17.96731728 75.13610053 C-17.96967162 68.57087045 -17.97868211 62.0058063 -18.00377846 55.44062042 C-18.02700377 49.2649767 -18.03131461 43.08960882 -18.02101707 36.9139328 C-18.02052026 34.64596135 -18.02688326 32.37797658 -18.04057312 30.11004639 C-18.05820656 27.01592263 -18.05122752 23.92279794 -18.03804016 20.82867432 C-18.04900941 19.92925181 -18.05997865 19.0298293 -18.0712803 18.10315156 C-18.0148316 12.62468271 -17.19549197 9.50918966 -13.55029297 5.16113281 C-9.06411696 1.11263251 -5.97066485 0.04067595 0 0 Z M15.44970703 34.16113281 C15.44970703 56.60113281 15.44970703 79.04113281 15.44970703 102.16113281 C44.90945988 104.16314828 44.90945988 104.16314828 68.17236328 91.46191406 C75.35097476 83.61306367 76.83292465 74.990032 76.72705078 64.57910156 C76.03533327 56.05441395 72.47867143 48.2433331 66.44970703 42.16113281 C59.07372479 36.21532307 52.50525623 33.83540121 42.98876953 33.96582031 C41.93629028 33.96884155 41.93629028 33.96884155 40.86254883 33.97192383 C38.26653411 33.98230901 35.67061331 34.01023105 33.07470703 34.03613281 C27.25845703 34.07738281 21.44220703 34.11863281 15.44970703 34.16113281 Z M15.44970703 136.16113281 C15.44970703 165.20113281 15.44970703 194.24113281 15.44970703 224.16113281 C23.16345703 224.24363281 30.87720703 224.32613281 38.82470703 224.41113281 C41.23960449 224.44754883 43.65450195 224.48396484 46.14257812 224.52148438 C48.08609126 224.53318181 50.02961429 224.54337113 51.97314453 224.55175781 C53.4510144 224.58245361 53.4510144 224.58245361 54.95874023 224.61376953 C66.25464484 224.61937962 76.31172649 220.11715741 84.42626953 212.24316406 C93.27249363 202.51231755 97.27216629 191.06124034 96.72705078 177.78222656 C95.22316823 163.56947736 90.84429005 153.06868145 79.71533203 143.81347656 C76.47350469 141.44917834 73.1838976 139.62013957 69.44970703 138.16113281 C68.64670166 137.81888672 67.84369629 137.47664062 67.01635742 137.12402344 C62.09353291 135.79500572 57.43950899 135.91418057 52.36376953 135.96582031 C50.95744263 135.96884155 50.95744263 135.96884155 49.52270508 135.97192383 C46.03998888 135.98234185 42.55734274 136.01026429 39.07470703 136.03613281 C31.27845703 136.07738281 23.48220703 136.11863281 15.44970703 136.16113281 Z " fill="currentColor" transform="translate(211.55029296875,126.8388671875)"/>
<path d="M0 0 C6.68447946 3.94149528 8.97126843 9.07698966 11.31640625 16.328125 C11.56843811 17.09671341 11.82046997 17.86530182 12.08013916 18.65718079 C16.23114438 31.49073842 19.97363921 44.45652397 23.79269409 57.39178085 C25.72826518 63.94299434 27.67206612 70.49177597 29.61401367 77.04110146 C30.38583014 79.64444811 31.15728602 82.24790144 31.92871094 84.85136414 C37.16206921 102.50887007 42.43472676 120.15458469 47.71251488 137.79885292 C49.6664862 144.33178787 51.61734883 150.86564551 53.56689453 157.39990234 C54.64200734 161.0023519 55.71737194 164.60472618 56.79296875 168.20703125 C57.05286213 169.07745434 57.31275551 169.94787743 57.58052444 170.84467697 C60.85106471 181.79396346 64.15413848 192.73245824 67.49609375 203.66015625 C68.48616181 206.91481984 69.47516514 210.16980436 70.46362305 213.42495728 C71.32699607 216.25226964 72.20497973 219.07473392 73.08398438 221.8972168 C78.54876434 239.72772687 78.54876434 239.72772687 75.61328125 248.37109375 C72.73472409 252.49702567 69.60465172 255.43647026 64.73828125 257.05859375 C59.04565287 257.62243504 54.58883987 257.36579281 49.73828125 254.05859375 C45.72756297 249.82191952 43.62274196 245.97196332 41.92578125 240.37109375 C41.68714355 239.62085938 41.44850586 238.870625 41.20263672 238.09765625 C40.36143894 235.42367821 39.54814119 232.74222979 38.73828125 230.05859375 C38.39265137 228.92212402 38.04702148 227.7856543 37.69091797 226.61474609 C35.86450465 220.59215019 34.05638628 214.56410945 32.27734375 208.52734375 C31.98037598 207.52123047 31.6834082 206.51511719 31.37744141 205.47851562 C30.73828125 203.05859375 30.73828125 203.05859375 30.73828125 201.05859375 C5.98828125 201.38859375 -18.76171875 201.71859375 -44.26171875 202.05859375 C-48.37126136 216.26551944 -48.37126136 216.26551944 -52.45800781 230.47900391 C-52.98029986 232.26879416 -53.50336082 234.05836029 -54.02734375 235.84765625 C-54.28757324 236.76699951 -54.54780273 237.68634277 -54.81591797 238.63354492 C-57.03436841 246.14981784 -59.61703626 251.45842895 -66.26171875 256.05859375 C-71.42883465 257.78096572 -76.36771633 257.71420997 -81.51171875 255.93359375 C-85.34256224 253.32165501 -88.1633369 250.25535746 -90.26171875 246.05859375 C-92.05104719 234.41769827 -87.44534724 223.13249093 -84.0703125 212.1875 C-83.41399913 210.01572351 -82.75919308 207.84349101 -82.10578918 205.6708374 C-80.35209865 199.85368458 -78.57863513 194.04273546 -76.80152893 188.23270035 C-74.95473366 182.18186447 -73.12689586 176.12531227 -71.29785156 170.0690918 C-68.71540683 161.52343627 -66.12777897 152.97938838 -63.53258324 144.43759632 C-58.18451737 126.83414041 -52.90788557 109.20990764 -47.65827179 91.57688141 C-46.01081367 86.04351517 -44.3587672 80.51153764 -42.70361328 74.98046875 C-37.43994839 57.39253495 -37.43994839 57.39253495 -32.24191284 39.78511047 C-31.1072633 35.91455841 -29.96632053 32.04587652 -28.8248291 28.17733765 C-28.11101486 25.74640488 -27.40811018 23.31252257 -26.70605469 20.87817383 C-26.29420438 19.48111009 -25.88181434 18.08420528 -25.46875 16.6875 C-25.13335205 15.5332251 -24.7979541 14.3789502 -24.45239258 13.18969727 C-22.29102946 7.50598146 -19.25188046 3.51332109 -14.26171875 0.05859375 C-9.47048627 -1.53848374 -4.75032512 -1.97725104 0 0 Z M-7.26171875 75.05859375 C-10.04449732 84.28280201 -12.82663294 93.50720389 -15.60798931 102.73184109 C-16.90005709 107.01703884 -18.192331 111.30217418 -19.48510742 115.5871582 C-20.73702698 119.73674906 -21.98836408 123.88651519 -23.23932838 128.03639412 C-23.71226864 129.60495077 -24.1854048 131.17344838 -24.65875816 132.74188042 C-25.97770349 137.1123966 -27.29242484 141.48414186 -28.60152817 145.85761642 C-29.05844725 147.38091676 -29.51708011 148.90370369 -29.97708511 150.42607498 C-30.68624292 152.77388035 -31.390121 155.12321403 -32.09301758 157.47290039 C-32.31107654 158.19064605 -32.52913549 158.9083917 -32.7538023 159.64788723 C-33.62011581 162.56014315 -34.26171875 165.00176052 -34.26171875 168.05859375 C-16.11171875 168.05859375 2.03828125 168.05859375 20.73828125 168.05859375 C18.18404517 157.8243523 18.18404517 157.8243523 15.31811523 147.69140625 C15.09655762 146.94505417 14.875 146.19870209 14.64672852 145.42973328 C13.92864475 143.01353969 13.20671563 140.59851782 12.484375 138.18359375 C11.97766226 136.48400567 11.47107786 134.78437932 10.96461487 133.0847168 C9.90992989 129.54763738 8.85323574 126.01116598 7.79516602 122.47509766 C6.4402275 117.94605041 5.0911314 113.41528613 3.74359035 108.8840332 C2.70214729 105.38485659 1.65727972 101.88670969 0.61140633 98.38885498 C0.11229455 96.71785507 -0.38566767 95.04651135 -0.8824482 93.37481689 C-1.57507976 91.04567869 -2.27240174 88.71799524 -2.97094727 86.390625 C-3.17411057 85.70385178 -3.37727386 85.01707855 -3.58659363 84.30949402 C-4.5659833 81.06400353 -5.6120123 78.02702536 -7.26171875 75.05859375 Z " fill="currentColor" transform="translate(90.26171875,127.94140625)"/>
<path d="M0 0 C12.09005866 10.31210885 21.26425947 24.47117408 23.57421875 40.38671875 C23.88942818 44.76556453 23.94422557 49.12271315 23.94921875 53.51171875 C23.97371094 54.65253906 23.99820313 55.79335937 24.0234375 56.96875 C24.0467991 63.67352799 23.68145126 67.99181335 19.57421875 73.38671875 C14.58462208 77.35803039 10.49695501 78.02517334 4.16015625 77.7734375 C-0.85693287 77.02314774 -3.49141642 74.4473491 -6.73828125 70.76171875 C-9.66705215 66.63974489 -9.65574998 63.2469441 -9.86328125 58.32421875 C-10.47702249 46.92667591 -11.74979315 37.077033 -20.24609375 28.5625 C-22.22948054 26.96856365 -24.22524291 25.66239315 -26.42578125 24.38671875 C-27.09609375 23.97421875 -27.76640625 23.56171875 -28.45703125 23.13671875 C-37.6891088 18.45566534 -50.23636043 18.90178339 -60.10546875 21.26953125 C-69.83172208 25.00659042 -76.08965265 30.56496789 -80.515625 39.95703125 C-82.14433618 44.30492119 -82.55205567 48.38533153 -82.56622314 53.00785828 C-82.57193329 54.12777664 -82.57764343 55.24769501 -82.58352661 56.40155029 C-82.58464447 57.62086243 -82.58576233 58.84017456 -82.58691406 60.09643555 C-82.59187897 61.38808121 -82.59684387 62.67972687 -82.60195923 64.01051331 C-82.61504637 67.54796544 -82.62152121 71.08539862 -82.62596989 74.62287116 C-82.62890715 76.83661955 -82.63301323 79.05036285 -82.63747406 81.26410866 C-82.65114057 88.20100812 -82.66081082 95.13789583 -82.66467595 102.07480782 C-82.66915187 110.06249383 -82.68668158 118.05000831 -82.71567655 126.03764218 C-82.73734991 132.22468812 -82.74738327 138.41168601 -82.74871707 144.59876949 C-82.74976125 148.28791048 -82.75558576 151.97689005 -82.77353668 155.66599083 C-82.79320188 159.78744144 -82.78870597 163.9085368 -82.78222656 168.0300293 C-82.79144135 169.23922028 -82.80065613 170.44841125 -82.81015015 171.69424438 C-82.75796006 182.32143916 -81.12876787 191.60000401 -73.42578125 199.38671875 C-65.24759527 206.06557064 -57.17662096 208.96533143 -46.67578125 208.88671875 C-45.35960815 208.87922607 -45.35960815 208.87922607 -44.0168457 208.87158203 C-36.68348166 208.67562925 -30.755163 207.23358772 -24.42578125 203.38671875 C-23.74386719 202.97550781 -23.06195313 202.56429687 -22.359375 202.140625 C-16.19235739 197.65188864 -12.47130584 189.90465228 -10.78125 182.6015625 C-10.2251143 177.57189567 -10.14358626 172.52110421 -10.08398438 167.46289062 C-9.88439488 161.64694556 -8.78983947 158.16979789 -5.42578125 153.38671875 C-0.45696218 149.43194439 3.60986796 148.73940068 9.921875 149.0078125 C15.30636139 149.77702484 18.35947939 151.8167668 21.73828125 156.18359375 C24.75472505 161.72298624 24.11193589 167.94157648 24.01171875 174.07421875 C24.01880859 175.27755859 24.02589844 176.48089844 24.03320312 177.72070312 C23.90350255 196.1880699 17.38240335 211.77384665 4.35546875 224.80078125 C-11.73621243 239.76242864 -30.78145817 244.21581767 -52.15234375 243.66015625 C-68.77086615 242.94531757 -84.05128947 236.54954154 -96.42578125 225.38671875 C-97.02390625 224.88011719 -97.62203125 224.37351562 -98.23828125 223.8515625 C-111.1832892 212.09125394 -116.64315663 195.10562421 -117.61248207 178.11397362 C-117.68982823 174.69584752 -117.70761081 171.28299998 -117.70043945 167.86401367 C-117.70555038 166.58083755 -117.71066132 165.29766144 -117.71592712 163.9756012 C-117.72916934 160.49603909 -117.72991246 157.01658657 -117.72736382 153.53700423 C-117.72628383 150.61262009 -117.73120351 147.68825721 -117.73596925 144.76387769 C-117.74701365 137.85388036 -117.74753076 130.94393741 -117.74145508 124.03393555 C-117.73542131 116.94991272 -117.74772278 109.86608882 -117.76902515 102.7820999 C-117.78674722 96.65933268 -117.79262589 90.53662817 -117.7893874 84.4138363 C-117.78759098 80.77493732 -117.79004362 77.13618022 -117.80410194 73.49730492 C-117.89812793 46.86651909 -116.76511433 24.54440974 -97.61328125 4.13671875 C-72.04239663 -20.28547379 -27.68068111 -22.05892621 0 0 Z " fill="currentColor" transform="translate(488.42578125,141.61328125)"/>
</svg>
